{
  "accessors": [
    {
      "bufferView": 2,
      "componentType": 5126,
      "count": 65532,
      "max": [
        0.8614400029182434,
        0.9517350196838379,
        0.557066023349762
      ],
      "min": [
        -0.6953740119934082,
        -0.9519029855728149,
        -0.578577995300293
      ],
      "type": "VEC3"
    },
    {
      "bufferView": 2,
      "byteOffset": 786384,
      "componentType": 5126,
      "count": 65532,
      "max": [
        0.9999921917915344,
        0.9999954700469971,
        0.9999566078186035
      ],
      "min": [
        -0.9999992847442627,
        -0.9999990463256836,
        -0.9999854564666748
      ],
      "type": "VEC3"
    },
    {
      "bufferView": 3,
      "componentType": 5126,
      "count": 65532,
      "max": [
        0.999982476234436,
        0.9999992847442627,
        0.9999967813491821,
        1.0
      ],
      "min": [
        -0.9999978542327881,
        -0.9999971985816956,
        -0.9999538064002991,
        -1.0
      ],
      "type": "VEC4"
    },
    {
      "bufferView": 1,
      "componentType": 5126,
      "count": 65532,
      "max": [
        0.9999859929084778,
        0.999796986579895
      ],
      "min": [
        0.0016840000171214342,
        0.0030660033226013184
      ],
      "type": "VEC2"
    },
    {
      "bufferView": 1,
      "byteOffset": 524256,
      "componentType": 5126,
      "count": 65532,
      "max": [
        0.9999859929084778,
        0.999796986579895
      ],
      "min": [
        0.0016840000171214342,
        0.0030660033226013184
      ],
      "type": "VEC2"
    },
    {
      "bufferView": 1,
      "byteOffset": 1048512,
      "componentType": 5126,
      "count": 65532,
      "max": [
        0.9999859929084778,
        0.999796986579895
      ],
      "min": [
        0.0016840000171214342,
        0.0030660033226013184
      ],
      "type": "VEC2"
    },
    {
      "bufferView": 1,
      "byteOffset": 1572768,
      "componentType": 5126,
      "count": 65532,
      "max": [
        0.9999859929084778,
        0.999796986579895
      ],
      "min": [
        0.0016840000171214342,
        0.0030660033226013184
      ],
      "type": "VEC2"
    },
    {
      "bufferView": 0,
      "componentType": 5125,
      "count": 342756,
      "type": "SCALAR"
    },
    {
      "bufferView": 2,
      "byteOffset": 1572768,
      "componentType": 5126,
      "count": 65532,
      "max": [
        0.9162480235099792,
        0.9510350227355957,
        0.5716699957847595
      ],
      "min": [
        -0.9480559825897217,
        -0.9510970115661621,
        -0.5282520055770874
      ],
      "type": "VEC3"
    },
    {
      "bufferView": 2,
      "byteOffset": 2359152,
      "componentType": 5126,
      "count": 65532,
      "max": [
        0.9999927282333374,
        0.9999781847000122,
        0.9999642372131348
      ],
      "min": [
        -0.9999508857727051,
        -0.9999921917915344,
        -0.9999872446060181
      ],
      "type": "VEC3"
    },
    {
      "bufferView": 3,
      "byteOffset": 1048512,
      "componentType": 5126,
      "count": 65532,
      "max": [
        0.9999743700027466,
        0.9999801516532898,
        0.9999725818634033,
        1.0
      ],
      "min": [
        -0.9999713897705078,
        -0.9999982118606567,
        -0.9999287724494934,
        -1.0
      ],
      "type": "VEC4"
    },
    {
      "bufferView": 1,
      "byteOffset": 2097024,
      "componentType": 5126,
      "count": 65532,
      "max": [
        0.9999899864196777,
        0.9999020099639893
      ],
      "min": [
        0.0010659999679774046,
        0.003010988235473633
      ],
      "type": "VEC2"
    },
    {
      "bufferView": 1,
      "byteOffset": 2621280,
      "componentType": 5126,
      "count": 65532,
      "max": [
        0.9999899864196777,
        0.9999020099639893
      ],
      "min": [
        0.0010659999679774046,
        0.003010988235473633
      ],
      "type": "VEC2"
    },
    {
      "bufferView": 1,
      "byteOffset": 3145536,
      "componentType": 5126,
      "count": 65532,
      "max": [
        0.9999899864196777,
        0.9999020099639893
      ],
      "min": [
        0.0010659999679774046,
        0.003010988235473633
      ],
      "type": "VEC2"
    },
    {
      "bufferView": 1,
      "byteOffset": 3669792,
      "componentType": 5126,
      "count": 65532,
      "max": [
        0.9999899864196777,
        0.9999020099639893
      ],
      "min": [
        0.0010659999679774046,
        0.003010988235473633
      ],
      "type": "VEC2"
    },
    {
      "bufferView": 0,
      "byteOffset": 1371024,
      "componentType": 5125,
      "count": 336198,
      "type": "SCALAR"
    },
    {
      "bufferView": 2,
      "byteOffset": 3145536,
      "componentType": 5126,
      "count": 65532,
      "max": [
        0.8564789891242981,
        0.9519699811935425,
        0.3882479965686798
      ],
      "min": [
        -0.8642680048942566,
        -0.9497150182723999,
        -0.47514501214027405
      ],
      "type": "VEC3"
    },
    {
      "bufferView": 2,
      "byteOffset": 3931920,
      "componentType": 5126,
      "count": 65532,
      "max": [
        0.9999499320983887,
        0.9999954700469971,
        0.9999750852584839
      ],
      "min": [
        -0.999998152256012,
        -0.9999984502792358,
        -0.9999867677688599
      ],
      "type": "VEC3"
    },
    {
      "bufferView": 3,
      "byteOffset": 2097024,
      "componentType": 5126,
      "count": 65532,
      "max": [
        0.9999909996986389,
        0.999985933303833,
        0.9999956488609314,
        1.0
      ],
      "min": [
        -0.9999732375144958,
        -0.9999935030937195,
        -0.9999505281448364,
        -1.0
      ],
      "type": "VEC4"
    },
    {
      "bufferView": 1,
      "byteOffset": 4194048,
      "componentType": 5126,
      "count": 65532,
      "max": [
        0.9999970197677612,
        0.9999859929084778
      ],
      "min": [
        6.600000051548705e-05,
        0.003081023693084717
      ],
      "type": "VEC2"
    },
    {
      "bufferView": 1,
      "byteOffset": 4718304,
      "componentType": 5126,
      "count": 65532,
      "max": [
        0.9999970197677612,
        0.9999859929084778
      ],
      "min": [
        6.600000051548705e-05,
        0.003081023693084717
      ],
      "type": "VEC2"
    },
    {
      "bufferView": 1,
      "byteOffset": 5242560,
      "componentType": 5126,
      "count": 65532,
      "max": [
        0.9999970197677612,
        0.9999859929084778
      ],
      "min": [
        6.600000051548705e-05,
        0.003081023693084717
      ],
      "type": "VEC2"
    },
    {
      "bufferView": 1,
      "byteOffset": 5766816,
      "componentType": 5126,
      "count": 65532,
      "max": [
        0.9999970197677612,
        0.9999859929084778
      ],
      "min": [
        6.600000051548705e-05,
        0.003081023693084717
      ],
      "type": "VEC2"
    },
    {
      "bufferView": 0,
      "byteOffset": 2715816,
      "componentType": 5125,
      "count": 317760,
      "type": "SCALAR"
    },
    {
      "bufferView": 2,
      "byteOffset": 4718304,
      "componentType": 5126,
      "count": 37157,
      "max": [
        0.9518229961395264,
        0.9517350196838379,
        0.16902300715446472
      ],
      "min": [
        -0.9518759846687317,
        -0.9519820213317871,
        -0.577006995677948
      ],
      "type": "VEC3"
    },
    {
      "bufferView": 2,
      "byteOffset": 5164188,
      "componentType": 5126,
      "count": 37157,
      "max": [
        0.9999821186065674,
        0.9999690055847168,
        0.9998918771743774
      ],
      "min": [
        -0.9999650120735168,
        -0.9999951124191284,
        -0.9999707937240601
      ],
      "type": "VEC3"
    },
    {
      "bufferView": 3,
      "byteOffset": 3145536,
      "componentType": 5126,
      "count": 37157,
      "max": [
        0.9997458457946777,
        0.9999064803123474,
        0.9999549388885498,
        1.0
      ],
      "min": [
        -0.9999741315841675,
        -0.9999892711639404,
        -0.9999620318412781,
        -1.0
      ],
      "type": "VEC4"
    },
    {
      "bufferView": 1,
      "byteOffset": 6291072,
      "componentType": 5126,
      "count": 37157,
      "max": [
        0.999987006187439,
        0.9993569850921631
      ],
      "min": [
        7.999999979801942e-06,
        0.003184020519256592
      ],
      "type": "VEC2"
    },
    {
      "bufferView": 1,
      "byteOffset": 6588328,
      "componentType": 5126,
      "count": 37157,
      "max": [
        0.999987006187439,
        0.9993569850921631
      ],
      "min": [
        7.999999979801942e-06,
        0.003184020519256592
      ],
      "type": "VEC2"
    },
    {
      "bufferView": 1,
      "byteOffset": 6885584,
      "componentType": 5126,
      "count": 37157,
      "max": [
        0.999987006187439,
        0.9993569850921631
      ],
      "min": [
        7.999999979801942e-06,
        0.003184020519256592
      ],
      "type": "VEC2"
    },
    {
      "bufferView": 1,
      "byteOffset": 7182840,
      "componentType": 5126,
      "count": 37157,
      "max": [
        0.999987006187439,
        0.9993569850921631
      ],
      "min": [
        7.999999979801942e-06,
        0.003184020519256592
      ],
      "type": "VEC2"
    },
    {
      "bufferView": 0,
      "byteOffset": 3986856,
      "componentType": 5125,
      "count": 164859,
      "type": "SCALAR"
    }
  ],
  "asset": {
    "extras": {
      "author": "JeffS (https://sketchfab.com/feliciali)",
      "license": "CC-BY-4.0 (http://creativecommons.org/licenses/by/4.0/)",
      "source": "https://sketchfab.com/3d-models/penguin-in-disguise-fb230447c9bf47e7afa20fb2d18d5ae0",
      "title": "Penguin in Disguise 高雅企鹅"
    },
    "generator": "Sketchfab-16.85.0",
    "version": "2.0"
  },
  "bufferViews": [
    {
      "buffer": 0,
      "byteLength": 4646292,
      "name": "floatBufferViews",
      "target": 34963
    },
    {
      "buffer": 0,
      "byteLength": 7480096,
      "byteOffset": 4646292,
      "byteStride": 8,
      "name": "floatBufferViews",
      "target": 34962
    },
    {
      "buffer": 0,
      "byteLength": 5610072,
      "byteOffset": 12126388,
      "byteStride": 12,
      "name": "floatBufferViews",
      "target": 34962
    },
    {
      "buffer": 0,
      "byteLength": 3740048,
      "byteOffset": 17736460,
      "byteStride": 16,
      "name": "floatBufferViews",
      "target": 34962
    }
  ],
  "buffers": [
    {
      "byteLength": 21476508,
      "uri": "scene.bin"
    }
  ],
  "images": [
    {
      "uri": "textures/material_0_baseColor.jpeg"
    },
    {
      "uri": "textures/material_0_metallicRoughness.png"
    },
    {
      "uri": "textures/material_0_normal.jpeg"
    }
  ],
  "materials": [
    {
      "doubleSided": true,
      "name": "material_0",
      "normalTexture": {
        "index": 2,
        "texCoord": 2
      },
      "pbrMetallicRoughness": {
        "baseColorTexture": {
          "index": 0
        },
        "metallicRoughnessTexture": {
          "index": 1,
          "texCoord": 1
        }
      }
    }
  ],
  "meshes": [
    {
      "name": "Object_0",
      "primitives": [
        {
          "attributes": {
            "NORMAL": 1,
            "POSITION": 0,
            "TANGENT": 2,
            "TEXCOORD_0": 3,
            "TEXCOORD_1": 4,
            "TEXCOORD_2": 5,
            "TEXCOORD_3": 6
          },
          "indices": 7,
          "material": 0,
          "mode": 4
        }
      ]
    },
    {
      "name": "Object_1",
      "primitives": [
        {
          "attributes": {
            "NORMAL": 9,
            "POSITION": 8,
            "TANGENT": 10,
            "TEXCOORD_0": 11,
            "TEXCOORD_1": 12,
            "TEXCOORD_2": 13,
            "TEXCOORD_3": 14
          },
          "indices": 15,
          "material": 0,
          "mode": 4
        }
      ]
    },
    {
      "name": "Object_2",
      "primitives": [
        {
          "attributes": {
            "NORMAL": 17,
            "POSITION": 16,
            "TANGENT": 18,
            "TEXCOORD_0": 19,
            "TEXCOORD_1": 20,
            "TEXCOORD_2": 21,
            "TEXCOORD_3": 22
          },
          "indices": 23,
          "material": 0,
          "mode": 4
        }
      ]
    },
    {
      "name": "Object_3",
      "primitives": [
        {
          "attributes": {
            "NORMAL": 25,
            "POSITION": 24,
            "TANGENT": 26,
            "TEXCOORD_0": 27,
            "TEXCOORD_1": 28,
            "TEXCOORD_2": 29,
            "TEXCOORD_3": 30
          },
          "indices": 31,
          "material": 0,
          "mode": 4
        }
      ]
    }
  ],
  "nodes": [
    {
      "children": [
        1
      ],
      "matrix": [
        1.0,
        0.0,
        0.0,
        0.0,
        0.0,
        2.220446049250313e-16,
        -1.0,
        0.0,
        0.0,
        1.0,
        2.220446049250313e-16,
        0.0,
        0.0,
        0.0,
        0.0,
        1.0
      ],
      "name": "Sketchfab_model"
    },
    {
      "children": [
        2
      ],
      "name": "root"
    },
    {
      "children": [
        3
      ],
      "matrix": [
        1.0,
        0.0,
        0.0,
        0.0,
        0.0,
        2.220446049250313e-16,
        1.0,
        0.0,
        0.0,
        -1.0,
        2.220446049250313e-16,
        0.0,
        0.0,
        0.0,
        0.0,
        1.0
      ],
      "name": "GLTF_SceneRootNode"
    },
    {
      "children": [
        4,
        5,
        6,
        7
      ],
      "name": "_0"
    },
    {
      "mesh": 0,
      "name": "Object_4"
    },
    {
      "mesh": 1,
      "name": "Object_5"
    },
    {
      "mesh": 2,
      "name": "Object_6"
    },
    {
      "mesh": 3,
      "name": "Object_7"
    }
  ],
  "samplers": [
    {
      "magFilter": 9729,
      "minFilter": 9987,
      "wrapS": 10497,
      "wrapT": 10497
    }
  ],
  "scene": 0,
  "scenes": [
    {
      "name": "Sketchfab_Scene",
      "nodes": [
        0
      ]
    }
  ],
  "textures": [
    {
      "sampler": 0,
      "source": 0
    },
    {
      "sampler": 0,
      "source": 1
    },
    {
      "sampler": 0,
      "source": 2
    }
  ]
}
